<svg width="309" height="90" viewBox="0 0 309 90" fill="none" xmlns="http://www.w3.org/2000/svg">
<rect width="309" height="90" rx="45" fill="#CFC82E"/>
<path d="M0.815324 39.2196C1.24041 17.4365 19.0205 0 40.8077 0H269C291.091 0 309 17.9086 309 40V41C309 63.0914 291.091 81 269 81H40.7882C18.3914 81 0.35883 62.6121 0.79581 40.2196L0.815324 39.2196Z" fill="#FAF124"/>
<path d="M29.6787 57.9521C29.3044 57.9521 28.9463 57.7894 28.6045 57.4639C28.2627 57.1546 28.1081 56.8047 28.1406 56.4141C28.7266 48.5527 29.988 41.4808 31.9248 35.1982C33.8617 28.9482 36.1729 24.806 38.8584 22.7715C39.9652 21.9414 41.0394 21.5264 42.0811 21.5264C45.0433 21.5264 47.8184 24.7979 50.4062 31.3408C52.6686 37.0863 54.638 44.6221 56.3145 53.9482L56.7051 56.0967C56.7214 56.1943 56.7295 56.2839 56.7295 56.3652C56.7295 56.8535 56.5505 57.2279 56.1924 57.4883C55.8506 57.765 55.4762 57.9033 55.0693 57.9033C54.7275 57.9033 54.4102 57.7975 54.1172 57.5859C53.8242 57.3906 53.637 57.0732 53.5557 56.6338L53.1895 54.5098C52.8151 52.4102 52.4245 50.4082 52.0176 48.5039C51.6107 46.5833 51.1875 44.7604 50.748 43.0352H33.2432C32.2829 47.7878 31.64 52.2799 31.3145 56.5117C31.2819 56.9349 31.1029 57.2767 30.7773 57.5371C30.4518 57.8138 30.0856 57.9521 29.6787 57.9521ZM33.9512 39.8613H49.918C48.0951 33.3672 46.207 28.8913 44.2539 26.4336C43.7982 25.8477 43.3424 25.4245 42.8867 25.1641C42.4635 24.9362 42.1543 24.8304 41.959 24.8467C40.9173 24.9769 39.8919 25.7988 38.8828 27.3125C36.9297 30.2422 35.2858 34.4251 33.9512 39.8613ZM63.248 57.1953C62.7923 57.1953 62.4017 56.9756 62.0762 56.5361C61.7507 56.0804 61.5879 55.6735 61.5879 55.3154C61.5879 55.0062 61.6367 54.6888 61.7344 54.3633C61.8483 54.0378 61.9134 53.7285 61.9297 53.4355C61.9785 52.5404 62.068 51.3359 62.1982 49.8223C62.3285 48.2923 62.3936 46.8112 62.3936 45.3789C62.3936 44.3372 62.3773 43.2061 62.3447 41.9854C62.2471 38.3883 62.1006 36.1992 61.9053 35.418C61.8239 35.0762 61.7832 34.7669 61.7832 34.4902C61.7832 34.0182 61.9134 33.6357 62.1738 33.3428C62.4505 33.0335 62.833 32.8789 63.3213 32.8789C63.6956 32.8789 64.0212 33.001 64.2979 33.2451C64.5745 33.4893 64.7536 33.766 64.835 34.0752C65.193 35.4261 65.4046 37.5013 65.4697 40.3008C67.846 35.6296 71.0605 33.0417 75.1133 32.5371C75.1784 32.5371 75.2435 32.5371 75.3086 32.5371C75.7969 32.5371 76.1712 32.7161 76.4316 33.0742C76.7083 33.416 76.8467 33.7904 76.8467 34.1973C76.8467 34.5553 76.7409 34.8809 76.5293 35.1738C76.3177 35.4668 75.9759 35.6377 75.5039 35.6865C71.3698 36.2074 68.3262 39.9102 66.373 46.7949C65.901 48.4714 65.543 50.1966 65.2988 51.9707C65.25 52.7031 65.2012 53.2809 65.1523 53.7041C65.1198 54.1273 65.1035 54.526 65.1035 54.9004C65.1035 55.112 65.1198 55.2829 65.1523 55.4131C65.1849 55.5433 65.2012 55.6572 65.2012 55.7549C65.2012 56.113 64.957 56.4466 64.4688 56.7559C63.9967 57.0488 63.5898 57.1953 63.248 57.1953ZM79.2637 48.7236C79.7357 50.4163 80.6471 51.7428 81.998 52.7031C83.3652 53.6634 85.0824 54.1436 87.1494 54.1436C89.9163 54.1436 93.1309 53.2402 96.793 51.4336C97.0208 51.3197 97.2568 51.2627 97.501 51.2627C97.9242 51.2627 98.2904 51.4092 98.5996 51.7021C98.9251 51.9951 99.0879 52.3613 99.0879 52.8008C99.0879 53.5007 98.7949 53.9971 98.209 54.29C96.3535 55.2015 94.4655 55.9339 92.5449 56.4873C90.6243 57.0407 88.7689 57.3174 86.9785 57.3174C85.1393 57.3174 83.4222 56.9756 81.8271 56.292C80.2484 55.6084 78.8975 54.4691 77.7744 52.874C77.1396 51.9788 76.6514 51.0267 76.3096 50.0176C75.9678 49.0085 75.7969 47.8773 75.7969 46.624C75.7969 46.0706 75.8294 45.4928 75.8945 44.8906C76.2689 41.7819 77.5628 39.1208 79.7764 36.9072C82.641 34.0426 86.4089 32.6104 91.0801 32.6104C92.8704 32.6104 94.4411 32.9603 95.792 33.6602C97.1429 34.3438 98.1032 35.3203 98.6729 36.5898C98.9821 37.2897 99.1367 38.0303 99.1367 38.8115C99.1367 40.1462 98.7868 41.3262 98.0869 42.3516C97.4033 43.3607 96.4268 44.2965 95.1572 45.1592C91.5928 47.568 86.4251 48.7725 79.6543 48.7725C79.5566 48.7725 79.4264 48.7562 79.2637 48.7236ZM78.9951 45.7451C79.223 45.6475 79.4427 45.5986 79.6543 45.5986C85.7904 45.5986 90.3721 44.5732 93.3994 42.5225C94.2458 41.9528 94.8887 41.375 95.3281 40.7891C95.7676 40.1868 95.9873 39.4951 95.9873 38.7139C95.9873 38.2581 95.8815 37.8919 95.6699 37.6152C95.4746 37.3385 95.2142 37.0781 94.8887 36.834C93.9772 36.1341 92.7158 35.7842 91.1045 35.7842C88.9398 35.7842 86.9704 36.1911 85.1963 37.0049C83.4222 37.8024 81.9818 38.9499 80.875 40.4473C79.7845 41.9284 79.1579 43.6943 78.9951 45.7451ZM135.733 34.3682L136.026 38.0303C136.205 40.9762 136.295 43.7432 136.295 46.3311C136.295 57.2197 134.716 64.8206 131.559 69.1338C130.729 70.2731 129.776 71.1113 128.702 71.6484C127.644 72.1855 126.513 72.4541 125.309 72.4541C123.746 72.4541 122.094 72.0309 120.353 71.1846C119.799 70.9079 119.522 70.4277 119.522 69.7441C119.522 69.2721 119.742 68.849 120.182 68.4746C120.621 68.1003 121.15 68.0514 121.769 68.3281C123.054 68.9792 124.21 69.3047 125.235 69.3047C125.951 69.3047 126.603 69.1501 127.188 68.8408C128.312 68.2549 129.239 67.2051 129.972 65.6914C130.72 64.1777 131.314 62.3874 131.754 60.3203C132.21 58.2533 132.535 56.0967 132.73 53.8506C132.942 51.5882 133.064 49.4235 133.097 47.3564C132.722 48.3981 132.242 49.4967 131.656 50.6523C131.07 51.7917 130.379 52.8659 129.581 53.875C128.8 54.8841 127.929 55.7061 126.969 56.3408C126.025 56.9756 124.991 57.293 123.868 57.293C122.534 57.293 121.402 56.8779 120.475 56.0479C119.563 55.2015 118.79 54.0052 118.155 52.459C117.032 49.7572 116.471 46.1927 116.471 41.7656C116.471 39.373 116.633 36.7363 116.959 33.8555C117.008 33.3997 117.187 33.0661 117.496 32.8545C117.805 32.6266 118.147 32.5127 118.521 32.5127C118.912 32.5127 119.27 32.6429 119.596 32.9033C119.938 33.1475 120.108 33.5218 120.108 34.0264C120.108 34.0915 120.108 34.1566 120.108 34.2217C119.799 37.0212 119.645 39.5521 119.645 41.8145C119.645 45.8021 120.125 48.9596 121.085 51.2871C121.866 53.1914 122.802 54.1436 123.893 54.1436C124.885 54.1436 126 53.346 127.237 51.751C130.086 48.0563 131.86 42.2783 132.56 34.417C132.592 33.9613 132.763 33.6195 133.072 33.3916C133.398 33.1475 133.748 33.0254 134.122 33.0254C134.496 33.0254 134.838 33.1393 135.147 33.3672C135.473 33.5951 135.668 33.9287 135.733 34.3682ZM153.702 31.6826C157.755 31.9268 161.075 33.9287 163.663 37.6885C164.363 38.6976 164.9 39.8206 165.274 41.0576C165.649 42.2783 165.836 43.6374 165.836 45.1348C165.836 47.3646 165.307 49.3665 164.249 51.1406C163.191 52.8984 161.913 54.2575 160.416 55.2178C159.456 55.8363 158.373 56.3327 157.169 56.707C155.965 57.0651 154.719 57.2441 153.434 57.2441C151.041 57.2441 148.998 56.7233 147.306 55.6816C145.629 54.6237 144.278 53.3135 143.253 51.751C141.869 49.6025 141.178 47.2995 141.178 44.8418C141.178 44.1908 141.227 43.5316 141.324 42.8643C141.78 39.6253 143.139 36.9723 145.401 34.9053C147.68 32.8219 150.252 31.7233 153.116 31.6094C153.312 31.5768 153.507 31.6012 153.702 31.6826ZM162.638 44.9639C162.638 43.0758 162.198 41.3913 161.319 39.9102C160.44 38.4128 159.301 37.2246 157.901 36.3457C156.518 35.4505 155.061 34.9541 153.531 34.8564C153.401 34.8564 153.271 34.832 153.141 34.7832C151.48 34.8809 149.983 35.3936 148.648 36.3213C147.314 37.2327 146.256 38.4372 145.475 39.9346C144.71 41.4157 144.327 43.0677 144.327 44.8906C144.327 46.2904 144.596 47.5599 145.133 48.6992C145.686 49.8385 146.394 50.8151 147.257 51.6289C148.136 52.4264 149.047 53.0205 149.991 53.4111C151.131 53.8669 152.302 54.0947 153.507 54.0947C155.183 54.0947 156.705 53.7041 158.072 52.9229C159.456 52.1253 160.506 51.165 161.222 50.042C161.694 49.2933 162.044 48.4876 162.271 47.625C162.516 46.7461 162.638 45.859 162.638 44.9639ZM188.175 34.1973C188.403 33.2858 188.932 32.8301 189.762 32.8301C190.152 32.8301 190.494 32.9766 190.787 33.2695C191.096 33.5625 191.275 33.8962 191.324 34.2705C191.471 35.7516 191.544 37.1676 191.544 38.5186C191.544 40.4229 191.397 42.2051 191.104 43.8652C191.202 49.4805 191.707 53.1344 192.618 54.8271C192.732 55.0225 192.797 55.1283 192.813 55.1445C193.351 55.4375 193.619 55.9095 193.619 56.5605C193.619 57.179 193.359 57.6266 192.838 57.9033C192.317 58.18 191.731 58.1475 191.08 57.8057C189.859 57.1709 188.98 55.0387 188.443 51.4092C187.906 52.3369 187.19 53.2728 186.295 54.2168C185.4 55.1608 184.374 55.9502 183.219 56.585C182.079 57.2035 180.842 57.5127 179.508 57.5127C178.645 57.5127 177.791 57.3581 176.944 57.0488C174.91 56.3001 173.364 54.7702 172.306 52.459C171.248 50.1315 170.719 47.4704 170.719 44.4756C170.719 41.2855 171.272 37.6234 172.379 33.4893C172.477 33.1312 172.68 32.8545 172.989 32.6592C173.299 32.4476 173.624 32.3418 173.966 32.3418C174.405 32.3418 174.804 32.5371 175.162 32.9277C175.52 33.3184 175.618 33.7822 175.455 34.3193C174.397 38.1279 173.868 41.4808 173.868 44.3779C173.868 46.5752 174.169 48.512 174.771 50.1885C175.195 51.3604 175.805 52.3532 176.603 53.167C177.4 53.9645 178.352 54.3633 179.459 54.3633C180.403 54.3633 181.38 54.0378 182.389 53.3867C185.188 51.5964 187.035 48.333 187.931 43.5967C187.931 43.2712 187.923 42.9375 187.906 42.5957C187.906 42.2376 187.906 41.8796 187.906 41.5215C187.906 40.8216 187.914 40.0973 187.931 39.3486C187.947 38.5837 187.971 37.8024 188.004 37.0049L188.175 34.1973ZM211.588 27.3369C211.588 26.7347 211.767 26.1569 212.125 25.6035C212.499 25.0339 212.955 24.5781 213.492 24.2363C214.029 23.8783 214.558 23.6992 215.079 23.6992C215.844 23.6992 216.487 24.0247 217.008 24.6758C217.545 25.3105 217.813 25.9453 217.813 26.5801C217.813 27.1823 217.626 27.7357 217.252 28.2402C216.878 28.7448 216.373 29.111 215.738 29.3389C215.022 29.6969 214.387 29.876 213.834 29.876C213.232 29.876 212.703 29.6318 212.247 29.1436C211.808 28.639 211.588 28.0368 211.588 27.3369ZM215.543 53.0205C215.494 54.3226 215.315 55.3643 215.006 56.1455C214.697 56.9105 214.16 57.293 213.395 57.293C212.971 57.293 212.597 57.1383 212.271 56.8291C211.946 56.5199 211.783 56.1374 211.783 55.6816C211.783 55.4701 211.824 55.2585 211.905 55.0469C212.052 54.7051 212.166 54.0296 212.247 53.0205C212.345 51.9951 212.418 50.7907 212.467 49.4072C212.516 48.0238 212.548 46.5996 212.564 45.1348C212.597 43.6536 212.613 42.2783 212.613 41.0088C212.613 39.7393 212.613 38.7301 212.613 37.9814C212.613 36.598 212.605 35.2715 212.589 34.002C212.589 33.4811 212.752 33.0905 213.077 32.8301C213.419 32.5697 213.793 32.4395 214.2 32.4395C214.591 32.4395 214.941 32.5697 215.25 32.8301C215.576 33.0742 215.738 33.4486 215.738 33.9531C215.755 34.8158 215.763 35.6621 215.763 36.4922C215.779 37.3223 215.787 38.1361 215.787 38.9336C215.787 41.5866 215.771 43.9873 215.738 46.1357C215.722 48.2842 215.657 50.5791 215.543 53.0205ZM224.356 31.8535C224.828 31.8535 225.219 32.0407 225.528 32.415C226.7 33.8311 227.555 36.012 228.092 38.958C230.305 34.9541 233.162 32.6999 236.661 32.1953C237.215 32.1139 237.76 32.0732 238.297 32.0732C240.25 32.0732 241.975 32.5208 243.473 33.416C244.97 34.3112 246.199 35.4912 247.159 36.9561C248.119 38.4209 248.771 39.9997 249.112 41.6924C249.34 42.7829 249.454 43.8978 249.454 45.0371C249.454 48.6341 248.307 52.4346 246.012 56.4385C245.719 56.943 245.271 57.1953 244.669 57.1953C244.164 57.1953 243.709 56.9593 243.302 56.4873C242.911 55.999 242.895 55.4538 243.253 54.8516C245.271 51.3359 246.28 48.0563 246.28 45.0127C246.28 44.1012 246.191 43.2142 246.012 42.3516C245.751 41.0983 245.271 39.9346 244.571 38.8604C243.888 37.7861 243.009 36.9235 241.935 36.2725C240.877 35.6051 239.656 35.2715 238.272 35.2715C237.898 35.2715 237.516 35.2959 237.125 35.3447C235.514 35.5726 234.138 36.2806 232.999 37.4688C231.86 38.6569 230.94 40.0973 230.24 41.79C229.557 43.4665 229.06 45.1755 228.751 46.917C228.751 47.1286 228.751 47.3402 228.751 47.5518C228.751 49.8955 228.629 52.2555 228.385 54.6318L228.287 55.584C228.238 56.0397 228.059 56.3815 227.75 56.6094C227.441 56.821 227.107 56.9268 226.749 56.9268C226.358 56.9268 225.992 56.8047 225.65 56.5605C225.325 56.3164 225.154 55.9502 225.138 55.4619C225.105 54.7295 225.089 54.0133 225.089 53.3135C225.089 50.9209 225.252 48.7155 225.577 46.6973C225.512 42.9538 225.219 40.1462 224.698 38.2744C224.194 36.4189 223.73 35.2308 223.307 34.71C222.916 34.2217 222.721 33.7904 222.721 33.416C222.721 32.944 222.892 32.5697 223.233 32.293C223.575 32 223.95 31.8535 224.356 31.8535ZM274.625 36.1748C274.625 36.891 274.308 37.4688 273.673 37.9082C273.038 38.3314 272.314 38.543 271.5 38.543C270.572 38.543 269.807 38.307 269.205 37.835C268.603 37.3467 268.302 36.6956 268.302 35.8818C268.302 35.5238 268.367 35.1494 268.497 34.7588C268.644 34.3193 268.977 33.7822 269.498 33.1475C270.019 32.5127 270.589 32.1953 271.207 32.1953C271.744 32.1953 272.273 32.4069 272.794 32.8301C273.315 33.2533 273.746 33.7741 274.088 34.3926C274.446 35.0111 274.625 35.6051 274.625 36.1748ZM274.43 52.8252C274.43 53.5413 274.112 54.1191 273.478 54.5586C272.843 54.9818 272.118 55.1934 271.305 55.1934C270.377 55.1934 269.612 54.9574 269.01 54.4854C268.408 53.9971 268.106 53.346 268.106 52.5322C268.106 52.1742 268.172 51.7998 268.302 51.4092C268.448 50.9697 268.782 50.4326 269.303 49.7979C269.824 49.1631 270.393 48.8457 271.012 48.8457C271.549 48.8457 272.078 49.0573 272.599 49.4805C273.119 49.9036 273.551 50.4245 273.893 51.043C274.251 51.6615 274.43 52.2555 274.43 52.8252Z" fill="black"/>
<rect x="222.113" y="6" width="61.1881" height="3" rx="1.5" fill="white"/>
<rect x="198.25" y="6" width="13.4614" height="3" rx="1.5" fill="white"/>
<path d="M299.522 20.6467C299.138 21.4316 298.333 21.2368 298.009 20.2801L296.2 14.9483C295.777 13.6998 295.078 12.7213 294.255 12.2239L289.458 9.32614C288.846 8.95623 288.593 7.75561 288.967 6.99373C289.193 6.5313 289.592 6.37576 289.963 6.60505L294.688 9.52764C296.209 10.4679 297.481 12.3307 298.209 14.6819L299.593 19.1545C299.75 19.6609 299.723 20.2383 299.522 20.6467Z" fill="white"/>
</svg>
