<svg width="402" height="90" viewBox="0 0 402 90" fill="none" xmlns="http://www.w3.org/2000/svg">
<rect width="402" height="90" rx="45" fill="#CFC82E"/>
<path d="M1.06667 38.9848C1.61731 17.2959 19.3579 0 41.0538 0H362C384.091 0 402 17.9086 402 40V41C402 63.0914 384.091 81 362 81H41.0284C18.5395 81 0.470524 62.4665 1.04128 39.9848L1.06667 38.9848Z" fill="#FAF124"/>
<path d="M42.873 56.4639C39.569 56.4639 36.5986 55.8942 33.9619 54.7549C31.3415 53.5993 29.2663 51.9147 27.7363 49.7012C26.2227 47.4876 25.4658 44.7695 25.4658 41.5469C25.4658 38.8939 25.9704 36.4362 26.9795 34.1738C27.9886 31.8952 29.2988 29.8932 30.9102 28.168C32.5215 26.4264 34.2223 25.0267 36.0127 23.9688C39.4795 21.9342 43.2474 20.917 47.3164 20.917C48.9603 20.917 50.653 21.0798 52.3945 21.4053C52.8177 21.4867 53.127 21.6738 53.3223 21.9668C53.5176 22.2598 53.6152 22.5771 53.6152 22.9189C53.6152 23.3258 53.485 23.7002 53.2246 24.042C52.9805 24.3675 52.6224 24.5303 52.1504 24.5303C52.0365 24.5303 51.9225 24.5221 51.8086 24.5059C50.2949 24.2129 48.8219 24.0664 47.3896 24.0664C43.8577 24.0664 40.5944 24.9453 37.5996 26.7031C36.1022 27.582 34.6699 28.762 33.3027 30.2432C31.9355 31.708 30.8125 33.4007 29.9336 35.3213C29.0547 37.2256 28.6152 39.2764 28.6152 41.4736C28.6152 44.1266 29.2419 46.332 30.4951 48.0898C31.7484 49.8314 33.4492 51.1335 35.5977 51.9961C37.7624 52.8587 40.2038 53.29 42.9219 53.29C45.6237 53.29 48.6673 52.8913 52.0527 52.0938C52.1829 52.0612 52.3132 52.0449 52.4434 52.0449C52.9154 52.0449 53.2897 52.224 53.5664 52.582C53.8431 52.9238 53.9814 53.2982 53.9814 53.7051C53.9814 54.0306 53.8838 54.3317 53.6885 54.6084C53.4932 54.8851 53.1921 55.0723 52.7852 55.1699C49.1393 56.0326 45.8353 56.4639 42.873 56.4639ZM58.9619 49.7988L58.8887 21.918C58.8887 21.4134 59.0514 21.0309 59.377 20.7705C59.7188 20.5101 60.085 20.3799 60.4756 20.3799C60.8825 20.3799 61.2487 20.5101 61.5742 20.7705C61.8997 21.0309 62.0625 21.4134 62.0625 21.918L62.0869 36.4688C63.9424 33.2461 66.2861 31.4639 69.1182 31.1221C69.4925 31.0732 69.8587 31.0488 70.2168 31.0488C72.4954 31.0488 74.6113 31.9033 76.5645 33.6123C78.013 34.8656 79.1686 36.4769 80.0312 38.4463C80.9102 40.3994 81.3496 42.6943 81.3496 45.3311C81.3496 48.5863 80.4951 51.9473 78.7861 55.4141C78.5094 55.9674 78.0374 56.2441 77.3701 56.2441C76.9144 56.2441 76.4831 56.0244 76.0762 55.585C75.6855 55.1292 75.6449 54.6003 75.9541 53.998C77.4352 51.0195 78.1758 48.1305 78.1758 45.3311C78.1758 43.2477 77.834 41.4167 77.1504 39.8379C76.4831 38.2428 75.596 36.9652 74.4893 36.0049C73.1383 34.8167 71.7061 34.2227 70.1924 34.2227C68.8252 34.2227 67.6615 34.6865 66.7012 35.6143C65.7409 36.5257 64.9515 37.665 64.333 39.0322C63.7308 40.3831 63.2751 41.7259 62.9658 43.0605C62.5101 44.9974 62.2334 47.2679 62.1357 49.8721V54.6572C62.1357 55.1618 61.9648 55.5443 61.623 55.8047C61.2975 56.0651 60.9313 56.1953 60.5244 56.1953C60.1338 56.1953 59.7757 56.0732 59.4502 55.8291C59.141 55.585 58.9782 55.2188 58.9619 54.7305C58.9294 53.998 58.9131 53.2331 58.9131 52.4355C58.9131 51.9798 58.9131 51.5322 58.9131 51.0928C58.9294 50.6533 58.9456 50.222 58.9619 49.7988ZM98.7568 30.6826C102.81 30.9268 106.13 32.9287 108.718 36.6885C109.418 37.6976 109.955 38.8206 110.329 40.0576C110.703 41.2783 110.891 42.6374 110.891 44.1348C110.891 46.3646 110.362 48.3665 109.304 50.1406C108.246 51.8984 106.968 53.2575 105.471 54.2178C104.51 54.8363 103.428 55.3327 102.224 55.707C101.019 56.0651 99.7741 56.2441 98.4883 56.2441C96.0957 56.2441 94.0531 55.7233 92.3604 54.6816C90.6839 53.6237 89.333 52.3135 88.3076 50.751C86.9242 48.6025 86.2324 46.2995 86.2324 43.8418C86.2324 43.1908 86.2812 42.5316 86.3789 41.8643C86.8346 38.6253 88.1937 35.9723 90.4561 33.9053C92.7347 31.8219 95.3063 30.7233 98.1709 30.6094C98.3662 30.5768 98.5615 30.6012 98.7568 30.6826ZM107.692 43.9639C107.692 42.0758 107.253 40.3913 106.374 38.9102C105.495 37.4128 104.356 36.2246 102.956 35.3457C101.573 34.4505 100.116 33.9541 98.5859 33.8564C98.4557 33.8564 98.3255 33.832 98.1953 33.7832C96.5352 33.8809 95.0378 34.3936 93.7031 35.3213C92.3685 36.2327 91.3105 37.4372 90.5293 38.9346C89.7643 40.4157 89.3818 42.0677 89.3818 43.8906C89.3818 45.2904 89.6504 46.5599 90.1875 47.6992C90.7409 48.8385 91.4489 49.8151 92.3115 50.6289C93.1904 51.4264 94.1019 52.0205 95.0459 52.4111C96.1852 52.8669 97.3571 53.0947 98.5615 53.0947C100.238 53.0947 101.76 52.7041 103.127 51.9229C104.51 51.1253 105.56 50.165 106.276 49.042C106.748 48.2933 107.098 47.4876 107.326 46.625C107.57 45.7461 107.692 44.859 107.692 43.9639ZM128.298 30.6826C132.351 30.9268 135.671 32.9287 138.259 36.6885C138.959 37.6976 139.496 38.8206 139.87 40.0576C140.244 41.2783 140.432 42.6374 140.432 44.1348C140.432 46.3646 139.903 48.3665 138.845 50.1406C137.787 51.8984 136.509 53.2575 135.012 54.2178C134.051 54.8363 132.969 55.3327 131.765 55.707C130.56 56.0651 129.315 56.2441 128.029 56.2441C125.637 56.2441 123.594 55.7233 121.901 54.6816C120.225 53.6237 118.874 52.3135 117.849 50.751C116.465 48.6025 115.773 46.2995 115.773 43.8418C115.773 43.1908 115.822 42.5316 115.92 41.8643C116.376 38.6253 117.735 35.9723 119.997 33.9053C122.276 31.8219 124.847 30.7233 127.712 30.6094C127.907 30.5768 128.103 30.6012 128.298 30.6826ZM137.233 43.9639C137.233 42.0758 136.794 40.3913 135.915 38.9102C135.036 37.4128 133.897 36.2246 132.497 35.3457C131.114 34.4505 129.657 33.9541 128.127 33.8564C127.997 33.8564 127.867 33.832 127.736 33.7832C126.076 33.8809 124.579 34.3936 123.244 35.3213C121.91 36.2327 120.852 37.4372 120.07 38.9346C119.305 40.4157 118.923 42.0677 118.923 43.8906C118.923 45.2904 119.191 46.5599 119.729 47.6992C120.282 48.8385 120.99 49.8151 121.853 50.6289C122.731 51.4264 123.643 52.0205 124.587 52.4111C125.726 52.8669 126.898 53.0947 128.103 53.0947C129.779 53.0947 131.301 52.7041 132.668 51.9229C134.051 51.1253 135.101 50.165 135.817 49.042C136.289 48.2933 136.639 47.4876 136.867 46.625C137.111 45.7461 137.233 44.859 137.233 43.9639ZM145.314 38.1289C145.314 36.6152 145.713 35.3457 146.511 34.3203C147.308 33.2786 148.342 32.4974 149.611 31.9766C150.881 31.4557 152.232 31.1953 153.664 31.1953C158.319 31.1953 162.201 32.6764 165.31 35.6387C165.635 35.9479 165.798 36.3141 165.798 36.7373C165.798 37.1442 165.651 37.5104 165.358 37.8359C165.082 38.1615 164.715 38.3324 164.26 38.3486C163.804 38.3486 163.43 38.2103 163.137 37.9336C162.209 37.0384 160.956 36.2246 159.377 35.4922C157.814 34.7435 156.219 34.3691 154.592 34.3691C151.239 34.3691 149.261 35.2806 148.659 37.1035C148.529 37.4941 148.464 37.8685 148.464 38.2266C148.464 39.2031 148.92 40.1064 149.831 40.9365C150.84 41.8643 152.533 42.3281 154.909 42.3281C155.3 42.3281 155.715 42.3118 156.154 42.2793C156.594 42.2467 157.033 42.2305 157.473 42.2305C159.572 42.2305 161.273 42.5479 162.575 43.1826C163.877 43.8011 164.87 44.7939 165.554 46.1611C165.993 47.0726 166.213 47.9596 166.213 48.8223C166.213 49.2129 166.172 49.6035 166.091 49.9941C165.554 52.3704 164.081 54.1038 161.672 55.1943C160.158 55.8942 158.555 56.2441 156.862 56.2441C156.521 56.2441 156.171 56.2279 155.812 56.1953C151.955 55.8372 148.749 54.5352 146.193 52.2891C145.835 51.9798 145.656 51.5811 145.656 51.0928C145.656 50.6533 145.811 50.2871 146.12 49.9941C146.446 49.6849 146.82 49.5303 147.243 49.5303C147.65 49.5303 148 49.6523 148.293 49.8965C149.432 50.8893 150.702 51.6624 152.102 52.2158C153.501 52.7692 155.104 53.0459 156.911 53.0459C159.174 53.0459 160.899 52.3949 162.087 51.0928C162.738 50.3766 163.063 49.6442 163.063 48.8955C163.063 48.4561 162.95 48.0085 162.722 47.5527C162.022 46.1204 160.541 45.4043 158.278 45.4043C157.79 45.4043 157.285 45.4206 156.765 45.4531C156.244 45.4694 155.772 45.4775 155.349 45.4775C153.412 45.4775 151.979 45.3555 151.052 45.1113C149.766 44.7695 148.627 44.1429 147.634 43.2314C146.641 42.32 145.957 41.2295 145.583 39.96C145.404 39.3577 145.314 38.7474 145.314 38.1289ZM174.562 47.7236C175.035 49.4163 175.946 50.7428 177.297 51.7031C178.664 52.6634 180.381 53.1436 182.448 53.1436C185.215 53.1436 188.43 52.2402 192.092 50.4336C192.32 50.3197 192.556 50.2627 192.8 50.2627C193.223 50.2627 193.589 50.4092 193.898 50.7021C194.224 50.9951 194.387 51.3613 194.387 51.8008C194.387 52.5007 194.094 52.9971 193.508 53.29C191.652 54.2015 189.764 54.9339 187.844 55.4873C185.923 56.0407 184.068 56.3174 182.277 56.3174C180.438 56.3174 178.721 55.9756 177.126 55.292C175.547 54.6084 174.196 53.4691 173.073 51.874C172.438 50.9788 171.95 50.0267 171.608 49.0176C171.267 48.0085 171.096 46.8773 171.096 45.624C171.096 45.0706 171.128 44.4928 171.193 43.8906C171.568 40.7819 172.862 38.1208 175.075 35.9072C177.94 33.0426 181.708 31.6104 186.379 31.6104C188.169 31.6104 189.74 31.9603 191.091 32.6602C192.442 33.3438 193.402 34.3203 193.972 35.5898C194.281 36.2897 194.436 37.0303 194.436 37.8115C194.436 39.1462 194.086 40.3262 193.386 41.3516C192.702 42.3607 191.726 43.2965 190.456 44.1592C186.892 46.568 181.724 47.7725 174.953 47.7725C174.855 47.7725 174.725 47.7562 174.562 47.7236ZM174.294 44.7451C174.522 44.6475 174.742 44.5986 174.953 44.5986C181.089 44.5986 185.671 43.5732 188.698 41.5225C189.545 40.9528 190.188 40.375 190.627 39.7891C191.066 39.1868 191.286 38.4951 191.286 37.7139C191.286 37.2581 191.18 36.8919 190.969 36.6152C190.773 36.3385 190.513 36.0781 190.188 35.834C189.276 35.1341 188.015 34.7842 186.403 34.7842C184.239 34.7842 182.269 35.1911 180.495 36.0049C178.721 36.8024 177.281 37.9499 176.174 39.4473C175.083 40.9284 174.457 42.6943 174.294 44.7451ZM234.597 39.0322C234.646 39.2113 234.67 39.3984 234.67 39.5938C234.67 39.9681 234.597 40.3994 234.45 40.8877C234.206 43.4593 234.084 45.7542 234.084 47.7725C234.084 50.5882 234.32 52.875 234.792 54.6328C234.841 54.7956 234.865 54.9502 234.865 55.0967C234.865 55.5524 234.686 55.9105 234.328 56.1709C233.986 56.4476 233.612 56.5859 233.205 56.5859C232.896 56.5859 232.603 56.4964 232.326 56.3174C232.049 56.1383 231.854 55.8454 231.74 55.4385C231.236 53.5667 230.967 51.1904 230.935 48.3096C229.388 50.7998 227.728 52.7611 225.954 54.1934C224.88 55.056 223.773 55.5443 222.634 55.6582C221.95 55.8535 221.283 55.9512 220.632 55.9512C219.704 55.9512 218.858 55.7803 218.093 55.4385C217.328 55.0967 216.669 54.6654 216.115 54.1445C215.122 53.2168 214.349 52.0205 213.796 50.5557C213.259 49.0745 212.99 47.3656 212.99 45.4287C212.99 42.9385 213.568 40.5622 214.724 38.2998C216.416 34.9795 218.988 32.766 222.438 31.6592C223.757 31.2197 225.026 31 226.247 31C227.777 31 229.217 31.3581 230.568 32.0742C232.928 33.3275 234.271 35.6468 234.597 39.0322ZM231.423 39.252C231.276 37.6895 230.764 36.4525 229.885 35.541C229.022 34.6296 227.842 34.1738 226.345 34.1738C225.45 34.1738 224.473 34.3447 223.415 34.6865C220.795 35.5166 218.882 37.1198 217.678 39.4961C216.669 41.498 216.164 43.4919 216.164 45.4775C216.164 46.8773 216.351 48.1305 216.726 49.2373C217.1 50.3441 217.58 51.1742 218.166 51.7275C218.898 52.4111 219.729 52.7529 220.656 52.7529C220.965 52.7529 221.258 52.7204 221.535 52.6553C221.828 52.5739 222.154 52.5169 222.512 52.4844C222.788 52.4518 223.334 52.1182 224.147 51.4834C224.961 50.8324 225.824 49.9128 226.735 48.7246C227.663 47.5365 228.534 46.2018 229.348 44.7207C230.161 43.2396 230.821 41.7503 231.325 40.2529C231.341 40.0902 231.358 39.9274 231.374 39.7646C231.39 39.5856 231.407 39.4147 231.423 39.252ZM268.312 56.6348C267.889 56.6348 267.515 56.472 267.189 56.1465C266.88 55.8372 266.726 55.471 266.726 55.0479V23.8955L255.007 23.8467C254.502 23.8467 254.12 23.6839 253.859 23.3584C253.599 23.0166 253.469 22.6504 253.469 22.2598C253.469 21.8529 253.599 21.4867 253.859 21.1611C254.12 20.8356 254.502 20.6729 255.007 20.6729L280.886 20.7705C281.39 20.7705 281.765 20.9333 282.009 21.2588C282.269 21.5843 282.399 21.9505 282.399 22.3574C282.399 22.748 282.269 23.1143 282.009 23.4561C281.765 23.7816 281.382 23.9443 280.861 23.9443C279.038 23.9281 277.215 23.9281 275.393 23.9443C273.57 23.9443 271.739 23.9362 269.899 23.9199V55.0479C269.899 55.471 269.737 55.8372 269.411 56.1465C269.102 56.472 268.736 56.6348 268.312 56.6348ZM289.187 30.6826C293.239 30.9268 296.56 32.9287 299.147 36.6885C299.847 37.6976 300.384 38.8206 300.759 40.0576C301.133 41.2783 301.32 42.6374 301.32 44.1348C301.32 46.3646 300.791 48.3665 299.733 50.1406C298.675 51.8984 297.398 53.2575 295.9 54.2178C294.94 54.8363 293.858 55.3327 292.653 55.707C291.449 56.0651 290.204 56.2441 288.918 56.2441C286.525 56.2441 284.483 55.7233 282.79 54.6816C281.114 53.6237 279.763 52.3135 278.737 50.751C277.354 48.6025 276.662 46.2995 276.662 43.8418C276.662 43.1908 276.711 42.5316 276.809 41.8643C277.264 38.6253 278.623 35.9723 280.886 33.9053C283.164 31.8219 285.736 30.7233 288.601 30.6094C288.796 30.5768 288.991 30.6012 289.187 30.6826ZM298.122 43.9639C298.122 42.0758 297.683 40.3913 296.804 38.9102C295.925 37.4128 294.785 36.2246 293.386 35.3457C292.002 34.4505 290.546 33.9541 289.016 33.8564C288.885 33.8564 288.755 33.832 288.625 33.7832C286.965 33.8809 285.467 34.3936 284.133 35.3213C282.798 36.2327 281.74 37.4372 280.959 38.9346C280.194 40.4157 279.812 42.0677 279.812 43.8906C279.812 45.2904 280.08 46.5599 280.617 47.6992C281.171 48.8385 281.879 49.8151 282.741 50.6289C283.62 51.4264 284.532 52.0205 285.476 52.4111C286.615 52.8669 287.787 53.0947 288.991 53.0947C290.668 53.0947 292.189 52.7041 293.557 51.9229C294.94 51.1253 295.99 50.165 296.706 49.042C297.178 48.2933 297.528 47.4876 297.756 46.625C298 45.7461 298.122 44.859 298.122 43.9639ZM306.179 33.9053C306.179 33.3031 306.309 32.7822 306.569 32.3428C306.846 31.887 307.294 31.6592 307.912 31.6592C308.335 31.6592 308.685 31.8301 308.962 32.1719C309.255 32.5137 309.426 32.9043 309.475 33.3438C309.523 33.7507 309.564 34.2389 309.597 34.8086C309.646 35.362 309.686 35.9967 309.719 36.7129C311.949 33.0345 314.87 31.1953 318.483 31.1953C320.713 31.1953 322.658 31.6266 324.318 32.4893C325.979 33.3356 327.346 34.5482 328.42 36.127C329.169 37.2337 329.714 38.4219 330.056 39.6914C330.414 40.9609 330.593 42.2467 330.593 43.5488C330.593 45.3066 330.3 47.0238 329.714 48.7002C329.144 50.3766 328.355 51.8496 327.346 53.1191C325.588 55.3164 323.317 56.415 320.534 56.415C320.29 56.415 320.054 56.4069 319.826 56.3906C316.685 56.1953 313.47 54.4375 310.183 51.1172C310.215 52.1263 310.24 53.3145 310.256 54.6816C310.272 56.0326 310.288 57.5544 310.305 59.2471L310.378 65.2041C310.378 65.6273 310.223 66.0016 309.914 66.3271C309.605 66.6527 309.239 66.8154 308.815 66.8154C308.376 66.8154 307.993 66.6608 307.668 66.3516C307.359 66.0586 307.204 65.6924 307.204 65.2529L307.131 59.2715C307.082 55.707 307.033 52.6715 306.984 50.165C306.952 47.6585 306.911 45.681 306.862 44.2324C306.748 43.9069 306.691 43.2233 306.691 42.1816C306.691 42.1165 306.691 42.0514 306.691 41.9863C306.691 40.7493 306.602 39.3822 306.423 37.8848C306.26 36.3874 306.179 35.0609 306.179 33.9053ZM318.459 34.3691C315.025 34.3691 312.388 37.0791 310.549 42.499C310.337 43.1338 310.166 43.6302 310.036 43.9883C310.052 44.3464 310.061 44.7126 310.061 45.0869C310.061 45.4613 310.069 45.8356 310.085 46.21C313.698 50.6696 317.043 53.0133 320.119 53.2412C320.233 53.2412 320.347 53.2412 320.461 53.2412C321.877 53.2412 323.106 52.7773 324.147 51.8496C325.189 50.9056 325.987 49.7093 326.54 48.2607C327.11 46.7959 327.395 45.2741 327.395 43.6953C327.395 40.9284 326.589 38.6823 324.978 36.957C323.382 35.2318 321.21 34.3691 318.459 34.3691ZM335.5 26.3369C335.5 25.7347 335.679 25.1569 336.037 24.6035C336.411 24.0339 336.867 23.5781 337.404 23.2363C337.941 22.8783 338.47 22.6992 338.991 22.6992C339.756 22.6992 340.399 23.0247 340.92 23.6758C341.457 24.3105 341.726 24.9453 341.726 25.5801C341.726 26.1823 341.538 26.7357 341.164 27.2402C340.79 27.7448 340.285 28.111 339.65 28.3389C338.934 28.6969 338.299 28.876 337.746 28.876C337.144 28.876 336.615 28.6318 336.159 28.1436C335.72 27.639 335.5 27.0368 335.5 26.3369ZM339.455 52.0205C339.406 53.3226 339.227 54.3643 338.918 55.1455C338.609 55.9105 338.072 56.293 337.307 56.293C336.883 56.293 336.509 56.1383 336.184 55.8291C335.858 55.5199 335.695 55.1374 335.695 54.6816C335.695 54.4701 335.736 54.2585 335.817 54.0469C335.964 53.7051 336.078 53.0296 336.159 52.0205C336.257 50.9951 336.33 49.7907 336.379 48.4072C336.428 47.0238 336.46 45.5996 336.477 44.1348C336.509 42.6536 336.525 41.2783 336.525 40.0088C336.525 38.7393 336.525 37.7301 336.525 36.9814C336.525 35.598 336.517 34.2715 336.501 33.002C336.501 32.4811 336.664 32.0905 336.989 31.8301C337.331 31.5697 337.705 31.4395 338.112 31.4395C338.503 31.4395 338.853 31.5697 339.162 31.8301C339.488 32.0742 339.65 32.4486 339.65 32.9531C339.667 33.8158 339.675 34.6621 339.675 35.4922C339.691 36.3223 339.699 37.1361 339.699 37.9336C339.699 40.5866 339.683 42.9873 339.65 45.1357C339.634 47.2842 339.569 49.5791 339.455 52.0205ZM349.807 46.5273C349.807 48.5293 350.384 50.1325 351.54 51.3369C352.712 52.5413 354.38 53.1436 356.545 53.1436C358.417 53.1436 360.622 52.6878 363.161 51.7764C363.34 51.7113 363.527 51.6787 363.723 51.6787C364.146 51.6787 364.512 51.8333 364.821 52.1426C365.147 52.4355 365.31 52.7936 365.31 53.2168C365.31 53.5911 365.204 53.9167 364.992 54.1934C364.781 54.4701 364.528 54.6572 364.235 54.7549C361.338 55.8128 358.767 56.3418 356.521 56.3418C354.03 56.3418 351.988 55.7559 350.393 54.584C348.798 53.3958 347.723 51.8822 347.17 50.043C346.812 48.8548 346.633 47.6585 346.633 46.4541C346.633 44.8102 346.958 43.1338 347.609 41.4248C348.212 39.8298 349.074 38.3242 350.197 36.9082C351.337 35.4922 352.712 34.3447 354.323 33.4658C355.951 32.5706 357.782 32.123 359.816 32.123C361.151 32.123 362.535 32.3428 363.967 32.7822C364.341 32.8962 364.61 33.0915 364.772 33.3682C364.951 33.6286 365.041 33.9134 365.041 34.2227C365.041 34.6296 364.903 35.012 364.626 35.3701C364.366 35.7119 364.007 35.8828 363.552 35.8828C363.389 35.8828 363.226 35.8584 363.063 35.8096C362.022 35.5003 361.005 35.3457 360.012 35.3457C358.449 35.3457 357.041 35.6875 355.788 36.3711C354.551 37.0384 353.493 37.9173 352.614 39.0078C351.735 40.082 351.06 41.2458 350.588 42.499C350.067 43.8825 349.807 45.2253 349.807 46.5273Z" fill="black"/>
<rect x="287" y="6" width="61.1881" height="3" rx="1.5" fill="white"/>
<rect x="263" y="6" width="13.4614" height="3" rx="1.5" fill="white"/>
<path d="M386.775 21.5269C387.478 21.2429 387.822 20.4402 387.491 19.7583C386.059 16.813 383.922 14.2577 381.261 12.3244C378.6 10.391 375.51 9.14792 372.266 8.69575C371.515 8.59106 370.858 9.16617 370.805 9.92257V9.92257C370.752 10.679 371.324 11.3295 372.073 11.4424C374.804 11.8534 377.402 12.9149 379.647 14.5457C381.891 16.1765 383.704 18.3203 384.938 20.7899C385.277 21.4682 386.072 21.8109 386.775 21.5269V21.5269Z" fill="white"/>
</svg>
